<svg class="diagram-root" style="background: #f5f6f6" xmlns="http://www.w3.org/2000/svg" xmlns:xlink="http://www.w3.org/1999/xlink"><style>.diagram-root { font-family: "Helvetica Neue", sans-serif; font-size: 12px; } .t { overflow: visible; } .t-bg { y: 40; fill: #fff;   } .th { fill: #005aa0;   } .tht { fill: #fff; font-size: 14px;  } .tf { fill: #323c46; overflow: visible; } .tf.pk { fill: #005aa0; font-weight: bold; } .tf.fk { font-weight: bold; } .ty { fill: #adb1b5; font-weight: normal; text-anchor: end; } .r { fill: transparent; stroke: #c3c3c3; stroke-width: 1; } .l { stroke: 1; } .i { fill: #c2c7ce; stroke: #c2c7ce; } .i.ix { fill: #afb3b6; stroke: #000; } .fa { fill: transparent; overflow: visible; } .fa .bg.hover { fill: #f7f7f7; } .c { cy: 12; r: 4; stroke: #d2d2dc; fill: #d2d2dc; } .hr { fill: transparent; stroke: #323c46; stroke-opacity: 0.035; stroke-width: 13; } .dc { stroke: #fa5a3c; fill: #fa5a3c; } .x { stroke: white; stroke-width: 1; } .hl .th { fill: #1b9bff; } .hl .tht {  } .fhl .bg { fill: #e7f4ff; } .fhls .bg {  } .r.hl { stroke: #1b9bff; } .dim { opacity: 0.25; }</style><g class="drawing-wrapper" transform="translate(420.8833333333335, 464.611111111111) scale(1,1)"><g class="rs"><path d="M -230.62 -77.44999999999999 m -1, 0 a 1,1 0 1,0 2,0 a 1,1 0 1,0 -2,0 M -230.62 -77.44999999999999 m -0.5, 0 a 0.5,0.5 0 1,0 1,0 a 0.5,0.5 0 1,0 -1,0  M-230.62 -77.44999999999999 L-230.62 -77.44999999999999 -218.62 -77.44999999999999 M -230.62 -71.44999999999999 m -1, 0 a 1,1 0 1,0 2,0 a 1,1 0 1,0 -2,0 M -230.62 -71.44999999999999 m -0.5, 0 a 0.5,0.5 0 1,0 1,0 a 0.5,0.5 0 1,0 -1,0  M-230.62 -71.44999999999999 L-230.62 -71.44999999999999 -223.62 -77.44999999999999 -230.62 -83.44999999999999 M -230.62 -83.44999999999999 m -1, 0 a 1,1 0 1,0 2,0 a 1,1 0 1,0 -2,0 M -230.62 -83.44999999999999 m -0.5, 0 a 0.5,0.5 0 1,0 1,0 a 0.5,0.5 0 1,0 -1,0  M-218.62 -77.44999999999999 Q -184.57 -77.44999999999999, -150.52 -137.65 T -82.43 -197.86 M -70.43 -197.86 m -1, 0 a 1,1 0 1,0 2,0 a 1,1 0 1,0 -2,0 M -70.43 -197.86 m -0.5, 0 a 0.5,0.5 0 1,0 1,0 a 0.5,0.5 0 1,0 -1,0  M-70.43 -197.86 L-70.43 -197.86 -82.43 -197.86 M-76.43 -191.86 L-76.43 -191.86 -76.43 -203.86" id="h1139284389" class="r"></path><path d="M -230.62 -52.44999999999999 m -1, 0 a 1,1 0 1,0 2,0 a 1,1 0 1,0 -2,0 M -230.62 -52.44999999999999 m -0.5, 0 a 0.5,0.5 0 1,0 1,0 a 0.5,0.5 0 1,0 -1,0  M-230.62 -52.44999999999999 L-230.62 -52.44999999999999 -218.62 -52.44999999999999 M -230.62 -46.44999999999999 m -1, 0 a 1,1 0 1,0 2,0 a 1,1 0 1,0 -2,0 M -230.62 -46.44999999999999 m -0.5, 0 a 0.5,0.5 0 1,0 1,0 a 0.5,0.5 0 1,0 -1,0  M-230.62 -46.44999999999999 L-230.62 -46.44999999999999 -223.62 -52.44999999999999 -230.62 -58.44999999999999 M -230.62 -58.44999999999999 m -1, 0 a 1,1 0 1,0 2,0 a 1,1 0 1,0 -2,0 M -230.62 -58.44999999999999 m -0.5, 0 a 0.5,0.5 0 1,0 1,0 a 0.5,0.5 0 1,0 -1,0  M-218.62 -52.44999999999999 C -168.62 -52.44999999999999, -167.96 -371.34, -219.72 -371.34 M -231.72 -371.34 m -1, 0 a 1,1 0 1,0 2,0 a 1,1 0 1,0 -2,0 M -231.72 -371.34 m -0.5, 0 a 0.5,0.5 0 1,0 1,0 a 0.5,0.5 0 1,0 -1,0  M-231.72 -371.34 L-231.72 -371.34 -219.72 -371.34 M-225.72 -365.34 L-225.72 -365.34 -225.72 -377.34" id="h1607168654" class="r"></path><path d="M -96.06 -367.75 m -1, 0 a 1,1 0 1,0 2,0 a 1,1 0 1,0 -2,0 M -96.06 -367.75 m -0.5, 0 a 0.5,0.5 0 1,0 1,0 a 0.5,0.5 0 1,0 -1,0  M-96.06 -367.75 L-96.06 -367.75 -108.06 -367.75 M -96.06 -361.75 m -1, 0 a 1,1 0 1,0 2,0 a 1,1 0 1,0 -2,0 M -96.06 -361.75 m -0.5, 0 a 0.5,0.5 0 1,0 1,0 a 0.5,0.5 0 1,0 -1,0  M-96.06 -361.75 L-96.06 -361.75 -103.06 -367.75 -96.06 -373.75 M -96.06 -373.75 m -1, 0 a 1,1 0 1,0 2,0 a 1,1 0 1,0 -2,0 M -96.06 -373.75 m -0.5, 0 a 0.5,0.5 0 1,0 1,0 a 0.5,0.5 0 1,0 -1,0  M-108.06 -367.75 Q -135.97 -367.75, -163.89 -369.54 T -219.72 -371.34 M -231.72 -371.34 m -1, 0 a 1,1 0 1,0 2,0 a 1,1 0 1,0 -2,0 M -231.72 -371.34 m -0.5, 0 a 0.5,0.5 0 1,0 1,0 a 0.5,0.5 0 1,0 -1,0  M-231.72 -371.34 L-231.72 -371.34 -219.72 -371.34 M-225.72 -365.34 L-225.72 -365.34 -225.72 -377.34" id="h1397587031" class="r"></path><path d="M -96.06 -342.75 m -1, 0 a 1,1 0 1,0 2,0 a 1,1 0 1,0 -2,0 M -96.06 -342.75 m -0.5, 0 a 0.5,0.5 0 1,0 1,0 a 0.5,0.5 0 1,0 -1,0  M-96.06 -342.75 L-96.06 -342.75 -108.06 -342.75 M -96.06 -336.75 m -1, 0 a 1,1 0 1,0 2,0 a 1,1 0 1,0 -2,0 M -96.06 -336.75 m -0.5, 0 a 0.5,0.5 0 1,0 1,0 a 0.5,0.5 0 1,0 -1,0  M-96.06 -336.75 L-96.06 -336.75 -103.06 -342.75 -96.06 -348.75 M -96.06 -348.75 m -1, 0 a 1,1 0 1,0 2,0 a 1,1 0 1,0 -2,0 M -96.06 -348.75 m -0.5, 0 a 0.5,0.5 0 1,0 1,0 a 0.5,0.5 0 1,0 -1,0  M-108.06 -342.75 C -157.1064734262878 -342.75, -172.48447342628782 -197.86, -82.43 -197.86 M -70.43 -197.86 m -1, 0 a 1,1 0 1,0 2,0 a 1,1 0 1,0 -2,0 M -70.43 -197.86 m -0.5, 0 a 0.5,0.5 0 1,0 1,0 a 0.5,0.5 0 1,0 -1,0  M-70.43 -197.86 L-70.43 -197.86 -82.43 -197.86 M-76.43 -191.86 L-76.43 -191.86 -76.43 -203.86" id="h2286254435" class="r"></path><path d="M 98.06 -172.86 m -1, 0 a 1,1 0 1,0 2,0 a 1,1 0 1,0 -2,0 M 98.06 -172.86 m -0.5, 0 a 0.5,0.5 0 1,0 1,0 a 0.5,0.5 0 1,0 -1,0  M98.06 -172.86 L98.06 -172.86 110.06 -172.86 M 98.06 -166.86 m -1, 0 a 1,1 0 1,0 2,0 a 1,1 0 1,0 -2,0 M 98.06 -166.86 m -0.5, 0 a 0.5,0.5 0 1,0 1,0 a 0.5,0.5 0 1,0 -1,0  M98.06 -166.86 L98.06 -166.86 105.06 -172.86 98.06 -178.86 M 98.06 -178.86 m -1, 0 a 1,1 0 1,0 2,0 a 1,1 0 1,0 -2,0 M 98.06 -178.86 m -0.5, 0 a 0.5,0.5 0 1,0 1,0 a 0.5,0.5 0 1,0 -1,0  M110.06 -172.86 C 540.988 -172.86, 398.14 -53.53, 348.14 -53.53 M 336.14 -53.53 m -1, 0 a 1,1 0 1,0 2,0 a 1,1 0 1,0 -2,0 M 336.14 -53.53 m -0.5, 0 a 0.5,0.5 0 1,0 1,0 a 0.5,0.5 0 1,0 -1,0  M336.14 -53.53 L336.14 -53.53 348.14 -53.53 M342.14 -47.53 L342.14 -47.53 342.14 -59.53" id="h1537058300" class="r"></path><path d="M 298.76 -377.61 m -1, 0 a 1,1 0 1,0 2,0 a 1,1 0 1,0 -2,0 M 298.76 -377.61 m -0.5, 0 a 0.5,0.5 0 1,0 1,0 a 0.5,0.5 0 1,0 -1,0  M298.76 -377.61 L298.76 -377.61 310.76 -377.61 M 298.76 -371.61 m -1, 0 a 1,1 0 1,0 2,0 a 1,1 0 1,0 -2,0 M 298.76 -371.61 m -0.5, 0 a 0.5,0.5 0 1,0 1,0 a 0.5,0.5 0 1,0 -1,0  M298.76 -371.61 L298.76 -371.61 305.76 -377.61 298.76 -383.61 M 298.76 -383.61 m -1, 0 a 1,1 0 1,0 2,0 a 1,1 0 1,0 -2,0 M 298.76 -383.61 m -0.5, 0 a 0.5,0.5 0 1,0 1,0 a 0.5,0.5 0 1,0 -1,0  M310.76 -377.61 C 360.76 -377.61, 481.18 -197.86, 110.06 -197.86 M 98.06 -197.86 m -1, 0 a 1,1 0 1,0 2,0 a 1,1 0 1,0 -2,0 M 98.06 -197.86 m -0.5, 0 a 0.5,0.5 0 1,0 1,0 a 0.5,0.5 0 1,0 -1,0  M98.06 -197.86 L98.06 -197.86 110.06 -197.86 M104.06 -191.86 L104.06 -191.86 104.06 -203.86" id="h3177548053" class="r"></path></g><g class="hrs"></g><g class="ts"><svg width="167.16" height="100" x="-398.88" y="-428.34" id="h475896179" class="t"><rect height="40" width="167.16" class="th"></rect><text x="13" y="25" class="tht">departments</text><rect height="60" width="167.16" class="t-bg"></rect><text x="13" y="61" class="tf pk">dept_no<tspan x="154.16" class="ty">VARCHAR</tspan></text><path d="M7,14A2,2 0 0,1 5,12A2,2 0 0,1 7,10A2,2 0 0,1 9,12A2,2 0 0,1 7,14M12.65,10C11.83,7.67 9.61,6 7, 6A6, 6 0 0, 0 1, 12A6, 6 0 0, 0 7, 18C9.61, 18 11.83, 16.33 12.65, 14H17V18H21V14H23V10H12.65Z" class="i pk" transform="translate(76.37484375, 48) scale(0.65)"></path><text x="13" y="86" class="tf">dept_name<tspan x="154.16" class="ty">VARCHAR</tspan></text></svg><svg width="147.16" height="100" x="-377.78" y="-134.45" id="h1090417462" class="t"><rect height="40" width="147.16" class="th"></rect><text x="13" y="25" class="tht">dept_emp</text><rect height="60" width="147.16" class="t-bg"></rect><text x="13" y="61" class="tf fk">emp_no<tspan x="134.16" class="ty">VARCHAR</tspan></text><text x="13" y="86" class="tf fk">dept_no<tspan x="134.16" class="ty">VARCHAR</tspan></text></svg><svg width="147.16" height="100" x="-96.06" y="-424.75" id="h1676682957" class="t"><rect height="40" width="147.16" class="th"></rect><text x="13" y="25" class="tht">dept_manager</text><rect height="60" width="147.16" class="t-bg"></rect><text x="13" y="61" class="tf fk">dept_no<tspan x="134.16" class="ty">VARCHAR</tspan></text><text x="13" y="86" class="tf fk">emp_no<tspan x="134.16" class="ty">VARCHAR</tspan></text></svg><svg width="168.49" height="225" x="-70.43" y="-254.86" id="h1639608377" class="t"><rect height="40" width="168.49" class="th"></rect><text x="13" y="25" class="tht">employees</text><rect height="185" width="168.49" class="t-bg"></rect><text x="13" y="61" class="tf pk">emp_no<tspan x="155.49" class="ty">VARCHAR</tspan></text><path d="M7,14A2,2 0 0,1 5,12A2,2 0 0,1 7,10A2,2 0 0,1 9,12A2,2 0 0,1 7,14M12.65,10C11.83,7.67 9.61,6 7, 6A6, 6 0 0, 0 1, 12A6, 6 0 0, 0 7, 18C9.61, 18 11.83, 16.33 12.65, 14H17V18H21V14H23V10H12.65Z" class="i pk" transform="translate(77.70484375000001, 48) scale(0.65)"></path><text x="13" y="86" class="tf fk">emp_title_id<tspan x="155.49" class="ty">VARCHAR</tspan></text><text x="13" y="111" class="tf">birth_date<tspan x="155.49" class="ty">DATE</tspan></text><text x="13" y="136" class="tf">first_name<tspan x="155.49" class="ty">VARCHAR</tspan></text><text x="13" y="161" class="tf">last_name<tspan x="155.49" class="ty">VARCHAR</tspan></text><text x="13" y="186" class="tf">sex<tspan x="155.49" class="ty">VARCHAR</tspan></text><text x="13" y="211" class="tf">hire_date<tspan x="155.49" class="ty">DATE</tspan></text></svg><svg width="147.15" height="100" x="151.61" y="-434.61" id="h2472833127" class="t"><rect height="40" width="147.15" class="th"></rect><text x="13" y="25" class="tht">salaries</text><rect height="60" width="147.15" class="t-bg"></rect><text x="13" y="61" class="tf fk">emp_no<tspan x="134.15" class="ty">VARCHAR</tspan></text><text x="13" y="86" class="tf">salary<tspan x="134.15" class="ty">INTEGER</tspan></text></svg><svg width="158.47" height="100" x="177.67" y="-110.53" id="h311790747" class="t"><rect height="40" width="158.47" class="th"></rect><text x="13" y="25" class="tht">titles</text><rect height="60" width="158.47" class="t-bg"></rect><text x="13" y="61" class="tf pk">title_id<tspan x="145.47" class="ty">VARCHAR</tspan></text><path d="M7,14A2,2 0 0,1 5,12A2,2 0 0,1 7,10A2,2 0 0,1 9,12A2,2 0 0,1 7,14M12.65,10C11.83,7.67 9.61,6 7, 6A6, 6 0 0, 0 1, 12A6, 6 0 0, 0 7, 18C9.61, 18 11.83, 16.33 12.65, 14H17V18H21V14H23V10H12.65Z" class="i pk" transform="translate(67.68484375, 48) scale(0.65)"></path><text x="13" y="86" class="tf fk">title<tspan x="145.47" class="ty">VARCHAR</tspan></text></svg></g></g><text class="qdbd-link" x="10" y="20">www.quickdatabasediagrams.com</text></svg>